<svg xmlns="http://www.w3.org/2000/svg" width="203" height="48" viewBox="0 0 203 48" fill="none"><g clip-path="url(#clip0_11_968)"><path d="M14.5664 5.51074H14.8492V13.0183H14.5664V5.51074ZM15.1319 5.51074H15.4147V13.0183H15.1319V5.51074ZM16.8297 5.51074H17.1124V13.0183H16.8297V5.51074ZM22.3334 5.51074H22.6161V13.0183H22.3334V5.51074ZM24.1734 5.51074H24.4561V13.0183H24.1734V5.51074ZM25.9576 5.51074H26.2403V13.0183H25.9576V5.51074ZM26.4174 5.51074H26.7001V13.0183H26.4177L26.4174 5.51074ZM26.8778 5.51074H27.1606V13.0183H26.8778V5.51074ZM27.3953 5.51074H27.6781V13.0183H27.3954L27.3953 5.51074ZM27.9127 5.51074H28.1955V13.0183H27.9127V5.51074ZM29.3512 5.51074H29.6339V13.0183H29.3508L29.3512 5.51074ZM32.9176 5.51074H33.2004V13.0183H32.9176V5.51074ZM36.6378 5.51074H36.9205V13.0183H36.6377L36.6378 5.51074ZM37.6554 5.51074H37.9381V13.0183H37.6554V5.51074ZM38.3911 5.51074H38.6738V13.0183H38.3911V5.51074ZM38.8437 5.51074H39.1264V13.0183H38.8437V5.51074ZM18.6969 5.51074H18.9797V13.0183H18.6969V5.51074ZM15.8676 5.51074H16.3767V13.0183H15.8676V5.51074ZM19.2276 5.51074H19.7367V13.0183H19.2276V5.51074ZM21.5869 5.51074H22.0959V13.0183H21.5869V5.51074ZM22.7947 5.51074H23.3038V13.0183H22.7947V5.51074ZM24.693 5.51074H25.202V13.0183H24.693V5.51074ZM30.1048 5.51074H30.8967V13.0183H30.1048V5.51074ZM31.1391 5.51074H31.7611V13.0183H31.1385L31.1391 5.51074ZM32.2305 5.51074H32.7396V13.0183H32.2305V5.51074ZM33.6737 5.51074H34.5226V13.0183H33.6737V5.51074ZM35.336 5.51074H36.1849V13.0183H35.336V5.51074ZM17.3955 5.51074H18.4136V13.0183H17.3955V5.51074ZM20.0344 5.51074H20.8262V13.0183H20.0344V5.51074Z" fill="white"></path><path d="M14.9318 19.6842V15.3871H16.5442C16.8137 15.3767 17.0825 15.421 17.3343 15.5173C17.5274 15.5999 17.6901 15.7402 17.8001 15.919C17.9092 16.0881 17.9677 16.2849 17.9688 16.4862C17.9689 16.6697 17.917 16.8496 17.8194 17.005C17.7094 17.1761 17.5527 17.3123 17.3679 17.3975C17.6051 17.4585 17.8158 17.5953 17.9681 17.7871C18.1089 17.9744 18.1827 18.2036 18.1775 18.4379C18.1792 18.6324 18.1356 18.8246 18.0503 18.9993C17.9781 19.156 17.8696 19.2932 17.7339 19.3997C17.5926 19.501 17.4327 19.5734 17.2633 19.6126C17.0361 19.6647 16.8035 19.6889 16.5705 19.6847L14.9318 19.6842ZM15.5009 17.1928H16.4302C16.6117 17.1999 16.7933 17.1832 16.9705 17.143C17.1001 17.1101 17.215 17.0349 17.2971 16.9293C17.3734 16.8194 17.412 16.6877 17.4069 16.5541C17.4095 16.4214 17.3739 16.2907 17.3043 16.1777C17.2379 16.0704 17.1347 15.991 17.0139 15.9544C16.7997 15.9051 16.5798 15.8849 16.3601 15.8943H15.5011L15.5009 17.1928ZM15.5009 19.1772H16.5707C16.7001 19.1806 16.8295 19.1738 16.9579 19.1569C17.0739 19.138 17.1854 19.0973 17.2862 19.0368C17.3784 18.9773 17.4531 18.8944 17.5029 18.7967C17.5611 18.6857 17.5904 18.5618 17.5882 18.4365C17.5922 18.287 17.5492 18.14 17.4652 18.0162C17.3823 17.8975 17.262 17.8098 17.1236 17.7672C16.9189 17.7118 16.707 17.6875 16.4951 17.6951H15.5009V19.1772ZM19.0086 17.5918C18.9725 16.9794 19.1788 16.3775 19.5829 15.916C19.7733 15.716 20.004 15.5586 20.2597 15.4543C20.5154 15.35 20.7903 15.3011 21.0663 15.3108C21.4432 15.3057 21.8143 15.4041 22.1391 15.5954C22.4548 15.782 22.7082 16.0579 22.8673 16.3883C23.0388 16.7482 23.1245 17.143 23.1176 17.5416C23.1248 17.9468 23.0347 18.3479 22.8547 18.711C22.6913 19.0415 22.4304 19.3139 22.1073 19.4914C21.7879 19.6676 21.4287 19.7589 21.0639 19.7568C20.6822 19.763 20.3065 19.6617 19.9798 19.4644C19.6653 19.2738 19.4135 18.9955 19.2552 18.6636C19.092 18.3299 19.0076 17.9632 19.0086 17.5918ZM19.5951 17.6008C19.5707 18.0479 19.7214 18.4869 20.0153 18.8248C20.1479 18.97 20.31 19.085 20.4909 19.1621C20.6717 19.2393 20.867 19.2768 21.0635 19.272C21.2612 19.277 21.4577 19.2392 21.6394 19.1612C21.8212 19.0832 21.9839 18.9667 22.1164 18.8199C22.4129 18.4614 22.5613 18.0032 22.5313 17.5389C22.5391 17.2246 22.4796 16.9122 22.3566 16.6228C22.2482 16.3732 22.0675 16.1618 21.8379 16.0159C21.6085 15.8717 21.3422 15.7969 21.0713 15.8004C20.8792 15.7975 20.6886 15.8326 20.5102 15.9038C20.3318 15.975 20.1694 16.0808 20.0321 16.2152C19.8698 16.4047 19.7474 16.625 19.6723 16.863C19.5971 17.101 19.5709 17.3517 19.5951 17.6001V17.6008ZM24.0501 19.6845V15.3871H24.6186V19.1768H26.7347V19.6842L24.0501 19.6845ZM27.646 19.6845V15.3871H30.7532V15.8943H28.2145V17.2108H30.5918V17.715H28.2145V19.1773H30.8529V19.6847L27.646 19.6845ZM32.9541 19.6845V15.8943H31.5376V15.3871H34.9438V15.8943H33.5222V19.6842L32.9541 19.6845ZM35.4681 17.5918C35.4325 16.9793 35.6394 16.3774 36.0439 15.9163C36.2343 15.7163 36.465 15.5589 36.7207 15.4546C36.9764 15.3503 37.2513 15.3014 37.5273 15.3111C37.9041 15.3059 38.2752 15.4044 38.6 15.5957C38.9157 15.7823 39.1691 16.0582 39.3282 16.3886C39.4998 16.7485 39.5855 17.1433 39.5785 17.5419C39.5856 17.9472 39.4952 18.3482 39.315 18.7113C39.1511 19.0424 38.8893 19.315 38.5652 19.4923C38.2458 19.6684 37.8866 19.7598 37.5218 19.7576C37.1399 19.7639 36.7639 19.6624 36.4371 19.4647C36.1233 19.2739 35.8721 18.9955 35.7143 18.6639C35.5512 18.3301 35.467 17.9633 35.4681 17.5918ZM36.0546 17.6008C36.0302 18.0479 36.181 18.4869 36.4749 18.8248C36.6074 18.97 36.7696 19.085 36.9504 19.1621C37.1313 19.2393 37.3265 19.2768 37.5231 19.272C37.7214 19.2776 37.9185 19.2402 38.1009 19.1622C38.2833 19.0843 38.4467 18.9677 38.5797 18.8205C38.8762 18.462 39.0245 18.0038 38.9944 17.5395C39.0006 17.2247 38.9392 16.9123 38.8143 16.6234C38.7059 16.3738 38.5252 16.1625 38.2956 16.0164C38.0663 15.8724 37.8003 15.7976 37.5295 15.801C37.3374 15.7981 37.1467 15.8332 36.9684 15.9044C36.79 15.9756 36.6275 16.0814 36.4902 16.2158C36.3282 16.4053 36.2061 16.6256 36.1313 16.8634C36.0564 17.1013 36.0304 17.3518 36.0546 17.6V17.6008Z" fill="white"></path></g><path fill-rule="evenodd" clip-rule="evenodd" d="M57.3608 16.9663H55.203L53.585 10.7934C53.5082 10.5095 53.3451 10.2584 53.1053 10.1401C52.5067 9.84281 51.847 9.60618 51.1274 9.48683V9.24918H54.6034C55.0831 9.24918 55.4429 9.60618 55.5029 10.0208L56.3424 14.4735L58.4991 9.24918H60.5969L57.3608 16.9663ZM61.7962 16.9663H59.7584L61.4364 9.24918H63.4742L61.7962 16.9663ZM66.1106 11.3872C66.1706 10.9715 66.5304 10.7339 66.9501 10.7339C67.6098 10.6742 68.3283 10.7935 68.928 11.0898L69.2878 9.42829C68.6881 9.19063 68.0285 9.07129 67.4299 9.07129C65.452 9.07129 64.0128 10.1402 64.0128 11.6238C64.0128 12.7524 65.0323 13.345 65.7519 13.702C66.5304 14.058 66.8302 14.2956 66.7702 14.6516C66.7702 15.1856 66.1706 15.4232 65.572 15.4232C64.8524 15.4232 64.1328 15.2452 63.4742 14.9479L63.1144 16.6105C63.834 16.9068 64.6125 17.0261 65.3321 17.0261C67.5498 17.0847 68.928 16.0168 68.928 14.4139C68.928 12.3954 66.1106 12.2771 66.1106 11.3872V11.3872ZM76.0597 16.9663L74.4417 9.24918H72.7037C72.3439 9.24918 71.9841 9.48684 71.8642 9.84281L68.868 16.9663H70.9657L71.3844 15.8388H73.9619L74.2018 16.9663H76.0597ZM73.0036 11.3277L73.6022 14.2362H71.9242L73.0036 11.3277Z" fill="white"></path><path fill-rule="evenodd" clip-rule="evenodd" d="M101.679 17.8822C100.466 18.9286 98.8932 19.5603 97.1744 19.5603C93.3392 19.5603 90.2302 16.4152 90.2302 12.5355C90.2302 8.65585 93.3392 5.51074 97.1744 5.51074C98.8932 5.51074 100.466 6.14245 101.679 7.18888C102.891 6.14245 104.464 5.51074 106.183 5.51074C110.018 5.51074 113.127 8.65585 113.127 12.5355C113.127 16.4152 110.018 19.5603 106.183 19.5603C104.464 19.5603 102.891 18.9286 101.679 17.8822Z" fill="white"></path><path fill-rule="evenodd" clip-rule="evenodd" d="M101.679 17.8822C103.172 16.5937 104.119 14.6765 104.119 12.5355C104.119 10.3946 103.172 8.47735 101.679 7.18888C102.891 6.14245 104.464 5.51074 106.183 5.51074C110.018 5.51074 113.127 8.65585 113.127 12.5355C113.127 16.4152 110.018 19.5603 106.183 19.5603C104.464 19.5603 102.891 18.9286 101.679 17.8822Z" fill="#C6C5C5"></path><path fill-rule="evenodd" clip-rule="evenodd" d="M101.679 17.8817C103.172 16.5933 104.119 14.676 104.119 12.5351C104.119 10.3942 103.172 8.47695 101.679 7.18848C100.186 8.47695 99.239 10.3942 99.239 12.5351C99.239 14.676 100.186 16.5933 101.679 17.8817Z" fill="white"></path><path fill-rule="evenodd" clip-rule="evenodd" d="M127.069 9.07129L123.736 16.4459H127.725L128.22 15.2701H129.351L129.845 16.4459H134.236V15.5485L134.628 16.4459H136.899L137.29 15.5295V16.4459H146.423L147.533 15.3006L148.573 16.4459L153.264 16.4554L149.921 12.7792L153.264 9.07129H148.646L147.565 10.1954L146.558 9.07129H136.623L135.77 10.9747L134.897 9.07129H130.916V9.93818L130.473 9.07129H127.069ZM140.706 10.1183H145.95L147.554 11.8509L149.21 10.1183H150.814L148.377 12.7779L150.814 15.4069H149.137L147.533 13.6542L145.869 15.4069H140.706V10.1183ZM142.001 12.1803V11.2143V11.2134H145.274L146.701 12.7583L145.21 14.3117H142.001V13.257H144.862V12.1803H142.001ZM127.84 10.1183H129.785L131.996 15.119V10.1183H134.126L135.833 13.7038L137.407 10.1183H139.526V15.41H138.236L138.226 11.2634L136.346 15.41H135.192L133.301 11.2634V15.41H130.648L130.145 14.2237H127.427L126.925 15.409H125.504L127.84 10.1183ZM127.891 13.127L128.786 11.0137L129.681 13.127H127.891Z" fill="white"></path><path d="M172.96 16.6038V11.3526C172.96 11.1228 173.005 10.8953 173.093 10.6831C173.181 10.4709 173.31 10.278 173.472 10.1156C173.635 9.9532 173.828 9.82437 174.04 9.73651C174.252 9.64864 174.48 9.60345 174.709 9.60352H176.258C176.721 9.60447 177.164 9.78895 177.491 10.1165C177.818 10.444 178.001 10.8878 178.001 11.3505V12.4682C178.001 12.9322 177.817 13.3772 177.489 13.7053C177.161 14.0334 176.716 14.2177 176.252 14.2177H174.061" stroke="white" stroke-width="0.381914" stroke-linecap="round" stroke-linejoin="round"></path><path d="M178.436 9.60254H179.107C179.298 9.60254 179.48 9.6782 179.615 9.81287C179.75 9.94754 179.825 10.1302 179.825 10.3206V14.2441" stroke="white" stroke-width="0.381914" stroke-linecap="round" stroke-linejoin="round"></path><path d="M179.68 8.9944L179.376 8.6893C179.358 8.67131 179.343 8.64995 179.334 8.62643C179.324 8.60291 179.319 8.5777 179.319 8.55223C179.319 8.52677 179.324 8.50156 179.334 8.47804C179.343 8.45452 179.358 8.43315 179.376 8.41517L179.68 8.11059C179.698 8.09256 179.72 8.07825 179.743 8.06849C179.767 8.05873 179.792 8.05371 179.817 8.05371C179.843 8.05371 179.868 8.05873 179.891 8.06849C179.915 8.07825 179.936 8.09256 179.954 8.11059L180.259 8.41517C180.277 8.43315 180.292 8.45452 180.302 8.47804C180.311 8.50156 180.316 8.52677 180.316 8.55223C180.316 8.5777 180.311 8.60291 180.302 8.62643C180.292 8.64995 180.277 8.67131 180.259 8.6893L179.954 8.9944C179.936 9.01243 179.915 9.02673 179.891 9.03649C179.868 9.04625 179.843 9.05127 179.817 9.05127C179.792 9.05127 179.767 9.04625 179.743 9.03649C179.72 9.02673 179.698 9.01243 179.68 8.9944" fill="white"></path><path d="M181.117 9.59961H181.784C182.127 9.59967 182.456 9.73596 182.699 9.97853L184.259 11.5381C184.307 11.5863 184.364 11.6245 184.427 11.6505C184.489 11.6766 184.557 11.69 184.625 11.69C184.693 11.69 184.76 11.6766 184.823 11.6505C184.885 11.6245 184.942 11.5863 184.99 11.5381L186.546 9.98421C186.666 9.86406 186.809 9.76875 186.966 9.70373C187.123 9.63871 187.291 9.60526 187.461 9.60529H188.003" stroke="white" stroke-width="0.381914" stroke-linecap="round" stroke-linejoin="round"></path><path d="M181.117 14.2081H181.784C182.127 14.208 182.456 14.0717 182.699 13.8292L184.259 12.2701C184.307 12.2219 184.364 12.1837 184.427 12.1577C184.489 12.1316 184.557 12.1182 184.625 12.1182C184.693 12.1182 184.76 12.1316 184.823 12.1577C184.885 12.1837 184.942 12.2219 184.99 12.2701L186.546 13.8235C186.666 13.9436 186.809 14.0389 186.966 14.104C187.123 14.169 187.291 14.2024 187.461 14.2024H188.003" stroke="white" stroke-width="0.381914" stroke-linecap="round" stroke-linejoin="round"></path><path d="M168.984 15.2055C168.819 15.206 168.656 15.1738 168.504 15.1108C168.351 15.0478 168.213 14.9552 168.097 14.8384L166.817 13.5617C166.772 13.5184 166.712 13.4941 166.649 13.4941C166.587 13.4941 166.527 13.5184 166.481 13.5617L165.197 14.8457C165.081 14.9624 164.943 15.055 164.791 15.118C164.638 15.181 164.475 15.2132 164.311 15.2127H164.059L165.679 16.8337C165.922 17.0767 166.252 17.2132 166.596 17.2132C166.939 17.2132 167.269 17.0767 167.512 16.8337L169.137 15.2081L168.984 15.2055Z" fill="white"></path><path d="M164.31 10.6781C164.475 10.6777 164.638 10.7099 164.79 10.7729C164.943 10.8359 165.081 10.9285 165.197 11.0451L166.481 12.3296C166.526 12.374 166.586 12.399 166.649 12.399C166.712 12.399 166.773 12.374 166.817 12.3296L168.097 11.0498C168.213 10.9331 168.351 10.8406 168.504 10.7776C168.656 10.7146 168.819 10.6824 168.984 10.6827H169.138L167.513 9.0576C167.393 8.93717 167.25 8.84164 167.093 8.77646C166.935 8.71128 166.767 8.67773 166.597 8.67773C166.426 8.67773 166.258 8.71128 166.101 8.77646C165.943 8.84164 165.8 8.93717 165.68 9.0576L164.06 10.6781H164.31Z" fill="white"></path><path d="M170.482 12.0271L169.501 11.0462C169.479 11.0551 169.456 11.0598 169.432 11.0602H168.985C168.753 11.0611 168.53 11.1539 168.366 11.3183L167.084 12.5955C167.027 12.6525 166.959 12.6978 166.885 12.7286C166.81 12.7594 166.73 12.7753 166.65 12.7751C166.487 12.7754 166.33 12.711 166.215 12.596L164.931 11.3116C164.766 11.1472 164.544 11.0544 164.311 11.0535H163.762C163.74 11.053 163.717 11.0485 163.696 11.04L162.71 12.0261C162.59 12.1464 162.494 12.2893 162.429 12.4466C162.364 12.6038 162.33 12.7724 162.33 12.9427C162.33 13.1129 162.364 13.2815 162.429 13.4388C162.494 13.596 162.59 13.7389 162.71 13.8593L163.696 14.8453C163.717 14.8368 163.74 14.8323 163.762 14.8319H164.311C164.543 14.8307 164.766 14.738 164.931 14.5737L166.215 13.2893C166.332 13.1776 166.488 13.1153 166.649 13.1153C166.811 13.1153 166.967 13.1776 167.084 13.2893L168.364 14.5691C168.528 14.7333 168.751 14.8261 168.983 14.8272H169.43C169.454 14.8275 169.477 14.8324 169.499 14.8417L170.48 13.8608C170.723 13.6176 170.86 13.288 170.86 12.9442C170.86 12.6005 170.723 12.2708 170.48 12.0276" fill="white"></path><path d="M174.293 16.1572C174.212 16.1608 174.131 16.1731 174.053 16.1938V16.5139C174.113 16.5351 174.176 16.5457 174.24 16.5454C174.401 16.5454 174.476 16.4912 174.476 16.3497C174.476 16.2171 174.414 16.1572 174.293 16.1572V16.1572ZM173.998 16.7514V16.119H174.043L174.047 16.1463C174.129 16.1244 174.213 16.1109 174.298 16.1061C174.356 16.102 174.415 16.1188 174.462 16.1536C174.488 16.1788 174.508 16.2095 174.52 16.2434C174.533 16.2774 174.538 16.3137 174.534 16.3497C174.537 16.3899 174.529 16.4302 174.511 16.4661C174.493 16.5021 174.465 16.5323 174.431 16.5536C174.373 16.5822 174.309 16.5964 174.245 16.5949C174.179 16.5946 174.115 16.5846 174.052 16.5655V16.7514H173.998Z" fill="white"></path><path d="M174.937 16.1558C174.776 16.1558 174.705 16.2075 174.705 16.3474C174.705 16.4873 174.776 16.5456 174.937 16.5456C175.098 16.5456 175.168 16.494 175.168 16.3546C175.168 16.2152 175.097 16.1558 174.937 16.1558V16.1558ZM175.143 16.5456C175.082 16.5838 175.009 16.6019 174.937 16.5972C174.864 16.6016 174.792 16.5836 174.73 16.5456C174.701 16.5226 174.679 16.4928 174.664 16.4588C174.65 16.4248 174.644 16.3877 174.648 16.351C174.644 16.3142 174.65 16.2771 174.665 16.2431C174.679 16.2091 174.702 16.1791 174.73 16.1558C174.792 16.1177 174.864 16.0996 174.937 16.1042C175.009 16.0997 175.081 16.1177 175.143 16.1558C175.172 16.1789 175.195 16.2086 175.209 16.2425C175.223 16.2764 175.229 16.3133 175.226 16.35C175.229 16.3869 175.224 16.4241 175.209 16.4582C175.195 16.4924 175.172 16.5224 175.143 16.5456" fill="white"></path><path d="M175.903 16.5818L175.724 16.1977H175.721L175.545 16.5818H175.499L175.308 16.1172H175.368L175.526 16.5059H175.53L175.702 16.1172H175.754L175.931 16.5059H175.934L176.089 16.1172H176.147L175.957 16.5818H175.903Z" fill="white"></path><path d="M176.488 16.1552C176.34 16.1552 176.29 16.2213 176.282 16.3168H176.698C176.694 16.2109 176.64 16.1552 176.491 16.1552H176.488ZM176.491 16.5955C176.423 16.6028 176.354 16.5844 176.299 16.5439C176.272 16.5195 176.251 16.4893 176.238 16.4557C176.225 16.4221 176.219 16.3859 176.221 16.3498C176.219 16.3123 176.226 16.2749 176.241 16.2405C176.256 16.2061 176.279 16.1756 176.308 16.1516C176.362 16.1179 176.425 16.1017 176.488 16.1051C176.553 16.1011 176.618 16.1167 176.674 16.15C176.741 16.1949 176.754 16.2739 176.754 16.3637H176.278C176.278 16.4587 176.311 16.5434 176.491 16.5434C176.571 16.5415 176.652 16.5325 176.73 16.5166V16.5651C176.65 16.5818 176.569 16.5915 176.487 16.594" fill="white"></path><path d="M176.908 16.582V16.1174H176.953L176.957 16.1448C177.032 16.1204 177.109 16.1068 177.187 16.1045H177.194V16.1561H177.181C177.107 16.1577 177.033 16.1701 176.963 16.1928V16.581L176.908 16.582Z" fill="white"></path><path d="M177.508 16.1546C177.36 16.1546 177.309 16.2207 177.302 16.3162H177.719C177.714 16.2104 177.66 16.1546 177.512 16.1546H177.508ZM177.512 16.595C177.444 16.6021 177.375 16.5837 177.319 16.5433C177.294 16.5186 177.274 16.4885 177.262 16.4552C177.249 16.4219 177.244 16.3862 177.247 16.3508C177.245 16.3133 177.252 16.2759 177.267 16.2415C177.282 16.2071 177.305 16.1766 177.333 16.1525C177.387 16.1188 177.451 16.1026 177.514 16.1061C177.579 16.1021 177.643 16.1178 177.699 16.151C177.766 16.1959 177.779 16.2749 177.779 16.3647H177.304C177.304 16.4597 177.337 16.5444 177.517 16.5444C177.597 16.5424 177.677 16.5334 177.756 16.5175V16.566C177.676 16.5828 177.594 16.5925 177.512 16.595" fill="white"></path><path d="M178.366 16.1861C178.306 16.1652 178.243 16.1547 178.179 16.1552C178.018 16.1552 177.942 16.2094 177.942 16.3503C177.942 16.4912 178.004 16.5429 178.126 16.5429C178.207 16.5391 178.287 16.5271 178.366 16.5072V16.1861ZM178.376 16.5816L178.371 16.5537C178.29 16.5757 178.206 16.5894 178.121 16.5945C178.062 16.599 178.004 16.5819 177.957 16.5465C177.931 16.5214 177.911 16.4907 177.898 16.4567C177.885 16.4228 177.881 16.3864 177.884 16.3503C177.881 16.3103 177.889 16.2702 177.907 16.2344C177.926 16.1986 177.953 16.1685 177.987 16.1474C178.045 16.1182 178.11 16.1038 178.175 16.1056C178.24 16.1064 178.304 16.1163 178.366 16.135V15.9229H178.421V16.5816H178.376Z" fill="white"></path><path d="M179.216 16.1567C179.134 16.1604 179.054 16.1726 178.975 16.1934V16.5124C179.035 16.5343 179.099 16.5453 179.162 16.5449C179.323 16.5449 179.399 16.4907 179.399 16.3493C179.399 16.2166 179.336 16.1567 179.216 16.1567V16.1567ZM179.354 16.5532C179.296 16.5817 179.232 16.5959 179.168 16.5945C179.097 16.5938 179.028 16.5819 178.961 16.5594V16.5816H178.924V15.9229H178.976V16.1423C179.056 16.1218 179.138 16.109 179.221 16.1041C179.279 16.1 179.338 16.1168 179.385 16.1515C179.411 16.1768 179.431 16.2075 179.443 16.2414C179.456 16.2754 179.461 16.3117 179.457 16.3477C179.46 16.3879 179.452 16.4282 179.434 16.4641C179.416 16.5001 179.388 16.5303 179.354 16.5516" fill="white"></path><path d="M179.525 16.7619V16.7103C179.552 16.7103 179.577 16.7149 179.594 16.7149C179.625 16.7175 179.657 16.7095 179.683 16.6922C179.709 16.6749 179.729 16.6493 179.739 16.6194L179.757 16.5828L179.515 16.1182H179.577L179.783 16.5177H179.787L179.984 16.1182H180.046L179.788 16.638C179.74 16.7325 179.689 16.7635 179.594 16.7635C179.571 16.7645 179.548 16.764 179.525 16.7619Z" fill="white"></path><path d="M180.793 16.3181H180.613V16.4807H180.794C180.918 16.4807 180.965 16.4667 180.965 16.3986C180.965 16.3304 180.9 16.3181 180.793 16.3181V16.3181ZM180.76 16.0548H180.613V16.22H180.761C180.883 16.22 180.932 16.2055 180.932 16.1363C180.932 16.0672 180.87 16.0548 180.76 16.0548V16.0548ZM181.039 16.5385C180.973 16.5803 180.893 16.5824 180.747 16.5824H180.473V15.9541H180.741C180.867 15.9541 180.943 15.9541 181.007 15.9944C181.029 16.0071 181.046 16.0255 181.058 16.0476C181.069 16.0697 181.074 16.0945 181.072 16.1193C181.074 16.1503 181.065 16.1809 181.047 16.2062C181.029 16.2315 181.003 16.25 180.973 16.2587V16.2623C181.053 16.2804 181.106 16.3217 181.106 16.411C181.108 16.4363 181.102 16.4617 181.091 16.4843C181.079 16.5068 181.061 16.5256 181.039 16.5385" fill="white"></path><path d="M181.654 16.3883C181.603 16.3836 181.545 16.3811 181.488 16.3811C181.393 16.3811 181.36 16.4002 181.36 16.4435C181.36 16.4869 181.387 16.5055 181.46 16.5055C181.525 16.5032 181.591 16.494 181.654 16.4781V16.3883ZM181.682 16.5829L181.678 16.555C181.596 16.5783 181.512 16.592 181.427 16.5958C181.378 16.5991 181.329 16.5872 181.287 16.5617C181.27 16.5488 181.256 16.5317 181.247 16.5122C181.238 16.4927 181.234 16.4712 181.235 16.4497C181.234 16.4234 181.241 16.3973 181.255 16.3749C181.269 16.3525 181.289 16.3349 181.313 16.3243C181.369 16.3035 181.428 16.2947 181.487 16.2985C181.536 16.2985 181.601 16.301 181.655 16.3046V16.2985C181.655 16.2262 181.607 16.2024 181.477 16.2024C181.425 16.2024 181.365 16.205 181.306 16.2107V16.1167C181.371 16.1116 181.445 16.108 181.505 16.108C181.58 16.1014 181.655 16.1163 181.721 16.1508C181.773 16.1885 181.784 16.2406 181.784 16.3098V16.5839L181.682 16.5829Z" fill="white"></path><path d="M182.388 16.5828V16.3247C182.388 16.2406 182.345 16.2101 182.268 16.2101C182.204 16.2128 182.141 16.2227 182.079 16.2395V16.5808H181.952V16.1161H182.055L182.06 16.145C182.14 16.1217 182.223 16.1076 182.307 16.1032C182.364 16.0988 182.421 16.1157 182.466 16.1507C182.485 16.1696 182.499 16.1924 182.508 16.2175C182.517 16.2426 182.52 16.2693 182.517 16.2958V16.5792L182.388 16.5828Z" fill="white"></path><path d="M182.881 16.5952C182.819 16.5999 182.758 16.5825 182.708 16.5461C182.682 16.5212 182.662 16.4905 182.649 16.4565C182.636 16.4225 182.632 16.3861 182.635 16.35C182.633 16.3117 182.64 16.2734 182.657 16.2388C182.673 16.2042 182.698 16.1744 182.73 16.1522C182.792 16.1175 182.862 16.1016 182.933 16.1063C182.985 16.1063 183.039 16.1099 183.096 16.1151V16.2142C183.05 16.21 182.993 16.2059 182.949 16.2059C182.826 16.2059 182.768 16.2446 182.768 16.351C182.768 16.4573 182.811 16.494 182.912 16.494C182.977 16.492 183.042 16.484 183.107 16.4702V16.5657C183.032 16.5828 182.957 16.5926 182.881 16.5952Z" fill="white"></path><path d="M183.49 16.2038C183.367 16.2038 183.313 16.2425 183.313 16.3478C183.313 16.4531 183.364 16.498 183.49 16.498C183.615 16.498 183.665 16.4603 183.665 16.355C183.665 16.2497 183.613 16.2038 183.49 16.2038V16.2038ZM183.712 16.5465C183.644 16.5847 183.567 16.6018 183.49 16.5956C183.412 16.6016 183.334 16.5845 183.267 16.5465C183.236 16.5244 183.212 16.4948 183.197 16.4605C183.182 16.4263 183.176 16.3887 183.179 16.3514C183.176 16.314 183.182 16.2762 183.197 16.2418C183.212 16.2074 183.236 16.1776 183.267 16.1552C183.335 16.1174 183.412 16.1006 183.49 16.1067C183.567 16.1008 183.644 16.1177 183.712 16.1552C183.742 16.1775 183.765 16.2072 183.78 16.2414C183.796 16.2756 183.802 16.3132 183.798 16.3504C183.801 16.3877 183.795 16.4254 183.78 16.4597C183.765 16.4941 183.742 16.524 183.712 16.5465" fill="white"></path><path d="M184.544 16.5946C184.464 16.5997 184.384 16.5765 184.319 16.529C184.243 16.4671 184.221 16.3705 184.221 16.2668C184.218 16.2152 184.228 16.1637 184.25 16.1171C184.273 16.0705 184.306 16.0302 184.348 15.9999C184.429 15.955 184.522 15.9344 184.614 15.9405C184.684 15.9405 184.755 15.9451 184.833 15.9513V16.0644C184.766 16.0587 184.684 16.0541 184.62 16.0541C184.441 16.0541 184.365 16.1222 184.365 16.2668C184.365 16.4113 184.435 16.4805 184.567 16.4805C184.661 16.4774 184.755 16.4648 184.847 16.4428V16.5553C184.748 16.5786 184.646 16.5919 184.544 16.5951" fill="white"></path><path d="M185.227 16.189C185.119 16.189 185.078 16.2272 185.072 16.2979H185.382C185.378 16.2225 185.334 16.189 185.227 16.189ZM185.208 16.5952C185.138 16.6015 185.069 16.5832 185.011 16.5436C184.985 16.5191 184.965 16.4889 184.952 16.4554C184.939 16.4218 184.934 16.3858 184.937 16.35C184.935 16.313 184.942 16.2759 184.957 16.242C184.972 16.2081 184.995 16.1782 185.024 16.1549C185.085 16.1182 185.156 16.1013 185.227 16.1064C185.297 16.102 185.367 16.1182 185.428 16.1528C185.502 16.2044 185.508 16.286 185.509 16.3815H185.069C185.072 16.4522 185.11 16.4977 185.24 16.4977C185.322 16.4958 185.405 16.4879 185.486 16.4739V16.5648C185.394 16.5822 185.301 16.5924 185.208 16.5952Z" fill="white"></path><path d="M186.084 16.5828V16.3247C186.084 16.2406 186.041 16.2101 185.965 16.2101C185.901 16.2128 185.837 16.2227 185.776 16.2395V16.5808H185.646V16.1161H185.752L185.756 16.145C185.837 16.1216 185.92 16.1076 186.004 16.1032C186.061 16.0988 186.117 16.1157 186.163 16.1507C186.182 16.1696 186.196 16.1924 186.205 16.2175C186.214 16.2426 186.217 16.2693 186.214 16.2958V16.5792L186.084 16.5828Z" fill="white"></path><path d="M186.581 16.5949C186.552 16.5977 186.523 16.5931 186.497 16.5815C186.471 16.5699 186.448 16.5518 186.431 16.5288C186.405 16.4867 186.393 16.4376 186.397 16.3884V16.215H186.303V16.1189H186.397L186.41 15.9785H186.525V16.1189H186.707V16.215H186.525V16.3636C186.523 16.3936 186.528 16.4237 186.538 16.4519C186.546 16.4669 186.558 16.4791 186.573 16.4868C186.588 16.4944 186.605 16.4972 186.622 16.4948C186.653 16.4942 186.684 16.4911 186.715 16.4855V16.5784C186.671 16.5881 186.626 16.5936 186.581 16.5949" fill="white"></path><path d="M186.834 16.582V16.1174H186.937L186.942 16.1463C187.016 16.1214 187.093 16.1073 187.171 16.1045H187.187V16.215C187.173 16.215 187.155 16.215 187.143 16.215C187.081 16.2152 187.02 16.2232 186.961 16.2387V16.581L186.834 16.582Z" fill="white"></path><path d="M187.66 16.3883C187.606 16.3836 187.55 16.3811 187.493 16.3811C187.398 16.3811 187.365 16.4002 187.365 16.4435C187.365 16.4869 187.393 16.5055 187.465 16.5055C187.531 16.5031 187.596 16.4939 187.66 16.4781V16.3883ZM187.687 16.5829L187.682 16.5566C187.6 16.5798 187.516 16.5935 187.431 16.5974C187.381 16.6006 187.332 16.5887 187.29 16.5633C187.273 16.5503 187.259 16.5332 187.25 16.5137C187.241 16.4942 187.237 16.4727 187.239 16.4513C187.237 16.4242 187.245 16.3974 187.259 16.3746C187.274 16.3518 187.295 16.3342 187.321 16.3243C187.376 16.3039 187.435 16.2955 187.494 16.2995C187.542 16.2995 187.608 16.3021 187.662 16.3057V16.2985C187.662 16.2262 187.614 16.2024 187.484 16.2024C187.432 16.2024 187.372 16.205 187.313 16.2107V16.1167C187.379 16.1116 187.452 16.108 187.512 16.108C187.587 16.1014 187.661 16.1163 187.727 16.1508C187.779 16.1885 187.791 16.2406 187.791 16.3098V16.5839L187.687 16.5829Z" fill="white"></path><path d="M187.955 15.9238H188.085V16.5826H187.955V15.9238Z" fill="white"></path><path d="M148.742 40.2539C148.451 40.256 148.169 40.3513 147.941 40.5245C147.712 40.6978 147.552 40.939 147.484 41.2098C147.416 41.4806 147.445 41.7653 147.566 42.0185C147.687 42.2717 147.894 42.4788 148.152 42.6069V44.0859H149.235V42.6534C149.514 42.544 149.745 42.3453 149.888 42.0912C150.032 41.8372 150.078 41.5435 150.02 41.2603C149.962 40.9772 149.803 40.722 149.57 40.5385C149.337 40.355 149.044 40.2544 148.742 40.2539Z" fill="white"></path><path d="M153.022 37.3627V35.1494C153.045 34.0282 152.602 32.9439 151.791 32.1336C150.98 31.3234 149.866 30.8533 148.692 30.8262C147.519 30.8533 146.405 31.3234 145.594 32.1336C144.782 32.9439 144.34 34.0282 144.363 35.1494V37.3627H142.739V46.154C142.739 46.4283 142.853 46.6914 143.056 46.8854C143.259 47.0793 143.535 47.1883 143.822 47.1883H153.563C153.85 47.1883 154.125 47.0793 154.328 46.8854C154.531 46.6914 154.645 46.4283 154.645 46.154V37.3627H153.022ZM145.445 35.1494C145.422 34.3025 145.75 33.4811 146.359 32.8649C146.967 32.2486 147.806 31.8875 148.692 31.8604C149.578 31.8875 150.417 32.2486 151.026 32.8649C151.634 33.4811 151.963 34.3025 151.939 35.1494V37.3627H145.445V35.1494ZM143.822 46.154V38.397H153.563V46.154H143.822Z" fill="white"></path><path d="M24.282 38.7412C25.0603 38.7412 25.7236 38.4637 26.1635 37.9493L25.595 37.4079C25.2499 37.7869 24.8235 37.9696 24.3294 37.9696C23.348 37.9696 22.6374 37.2793 22.6374 36.3047C22.6374 35.3301 23.348 34.6397 24.3294 34.6397C24.8235 34.6397 25.2499 34.8225 25.595 35.1947L26.1635 34.66C25.7236 34.1457 25.0603 33.8682 24.2888 33.8682C22.8336 33.8682 21.7507 34.8902 21.7507 36.3047C21.7507 37.7192 22.8336 38.7412 24.282 38.7412Z" fill="white"></path><path d="M28.4175 38.7209C29.541 38.7209 30.3465 37.9493 30.3465 36.8664C30.3465 35.7835 29.541 35.0187 28.4175 35.0187C27.3076 35.0187 26.4954 35.7835 26.4954 36.8664C26.4954 37.9493 27.3076 38.7209 28.4175 38.7209ZM28.4175 37.9967C27.8084 37.9967 27.3482 37.5568 27.3482 36.8664C27.3482 36.1761 27.8084 35.7362 28.4175 35.7362C29.0334 35.7362 29.4937 36.1761 29.4937 36.8664C29.4937 37.5568 29.0334 37.9967 28.4175 37.9967Z" fill="white"></path><path d="M35.7172 35.0187C35.1419 35.0187 34.6546 35.2489 34.3635 35.6211C34.1131 35.215 33.6732 35.0187 33.1453 35.0187C32.6512 35.0187 32.2316 35.1947 31.9609 35.5196V35.0594H31.1555V38.6735H32.0015V36.8394C32.0015 36.1219 32.3805 35.7565 32.9422 35.7565C33.4566 35.7565 33.7544 36.0678 33.7544 36.7108V38.6735H34.6004V36.8394C34.6004 36.1219 34.9862 35.7565 35.5412 35.7565C36.0556 35.7565 36.3534 36.0678 36.3534 36.7108V38.6735H37.1994V36.6025C37.1994 35.5128 36.5903 35.0187 35.7172 35.0187Z" fill="white"></path><path d="M40.2839 35.0187C39.7898 35.0187 39.3702 35.1879 39.0859 35.5331V35.0594H38.2805V39.9865H39.1265V38.2336C39.4175 38.5652 39.8236 38.7209 40.2839 38.7209C41.3397 38.7209 42.118 37.9899 42.118 36.8664C42.118 35.7497 41.3397 35.0187 40.2839 35.0187ZM40.1891 37.9967C39.58 37.9967 39.113 37.5568 39.113 36.8664C39.113 36.1761 39.58 35.7362 40.1891 35.7362C40.7982 35.7362 41.2585 36.1761 41.2585 36.8664C41.2585 37.5568 40.7982 37.9967 40.1891 37.9967Z" fill="white"></path><path d="M43.7258 35.5873V35.0594H42.9204V38.6735H43.7664V36.9206C43.7664 36.1829 44.1725 35.8038 44.8154 35.8038C44.8763 35.8038 44.9373 35.8106 45.0117 35.8242V35.0187C44.4093 35.0187 43.9694 35.2083 43.7258 35.5873Z" fill="white"></path><path d="M47.0903 35.0187C46.5082 35.0187 45.9464 35.1676 45.5607 35.4654L45.8923 36.0813C46.163 35.858 46.5826 35.7226 46.9887 35.7226C47.5911 35.7226 47.8889 36.0137 47.8889 36.5077V36.5619H46.9549C45.8585 36.5619 45.4524 37.0356 45.4524 37.638C45.4524 38.2674 45.9735 38.7209 46.7992 38.7209C47.3407 38.7209 47.7332 38.5449 47.9363 38.2336V38.6735H48.7349V36.5551C48.7349 35.5128 48.1325 35.0187 47.0903 35.0187ZM46.9752 38.105C46.542 38.105 46.2848 37.9087 46.2848 37.6042C46.2848 37.3402 46.4405 37.1236 47.0158 37.1236H47.8889V37.5433C47.7468 37.9155 47.3881 38.105 46.9752 38.105Z" fill="white"></path><path d="M23.5578 45.1622C24.8573 45.1622 25.4732 44.5125 25.4732 43.7545C25.4732 42.0151 22.6644 42.6716 22.6644 41.6631C22.6644 41.3044 22.9622 41.0202 23.6932 41.0202C24.106 41.0202 24.573 41.142 24.9994 41.3924L25.2769 40.7088C24.8641 40.4381 24.2685 40.2892 23.7 40.2892C22.4005 40.2892 21.7913 40.9389 21.7913 41.7037C21.7913 43.4634 24.6069 42.7934 24.6069 43.8154C24.6069 44.1673 24.2955 44.4313 23.5578 44.4313C22.9758 44.4313 22.3734 44.2147 21.9944 43.9101L21.6898 44.5937C22.0824 44.9321 22.8201 45.1622 23.5578 45.1622Z" fill="white"></path><path d="M29.662 43.3078C29.662 42.1775 28.8905 41.4398 27.8346 41.4398C26.7585 41.4398 25.9666 42.2113 25.9666 43.2875C25.9666 44.3636 26.7517 45.1419 27.9632 45.1419C28.5859 45.1419 29.0935 44.9389 29.4184 44.5531L28.9649 44.032C28.7077 44.2959 28.3896 44.4245 27.9835 44.4245C27.3541 44.4245 26.9142 44.0861 26.8127 43.5582H29.6485C29.6553 43.477 29.662 43.3755 29.662 43.3078ZM27.8346 42.1166C28.3896 42.1166 28.7889 42.4753 28.8566 42.9964H26.8059C26.8871 42.4685 27.2864 42.1166 27.8346 42.1166Z" fill="white"></path><path d="M33.2564 41.4804V41.9609C32.9586 41.6022 32.5119 41.4398 32.0043 41.4398C30.9688 41.4398 30.1769 42.1301 30.1769 43.1792C30.1769 44.2282 30.9688 44.9321 32.0043 44.9321C32.4916 44.9321 32.918 44.7765 33.2158 44.4516V44.6411C33.2158 45.3721 32.8638 45.7375 32.0652 45.7375C31.5643 45.7375 31.05 45.5683 30.7319 45.3044L30.3529 45.9406C30.7657 46.279 31.4358 46.455 32.1126 46.455C33.3782 46.455 34.0618 45.8594 34.0618 44.5463V41.4804H33.2564ZM32.1329 44.2147C31.4899 44.2147 31.0297 43.7951 31.0297 43.1792C31.0297 42.5701 31.4899 42.1572 32.1329 42.1572C32.7691 42.1572 33.2293 42.5701 33.2293 43.1792C33.2293 43.7951 32.7691 44.2147 32.1329 44.2147Z" fill="white"></path><path d="M37.8271 41.4804V43.3078C37.8271 44.032 37.4278 44.3974 36.839 44.3974C36.3043 44.3974 35.993 44.0861 35.993 43.4296V41.4804H35.147V43.5447C35.147 44.6343 35.7764 45.1419 36.7036 45.1419C37.1706 45.1419 37.597 44.966 37.8677 44.6343V45.0946H38.6731V41.4804H37.8271Z" fill="white"></path><path d="M40.5863 42.0083V41.4804H39.7808V45.0946H40.6269V43.3416C40.6269 42.6039 41.0329 42.2249 41.6759 42.2249C41.7368 42.2249 41.7977 42.2317 41.8722 42.2452V41.4398C41.2698 41.4398 40.8299 41.6293 40.5863 42.0083Z" fill="white"></path><path d="M43.9507 41.4398C43.3687 41.4398 42.8069 41.5887 42.4212 41.8865L42.7528 42.5024C43.0235 42.279 43.4431 42.1437 43.8492 42.1437C44.4516 42.1437 44.7494 42.4347 44.7494 42.9288V42.9829H43.8154C42.719 42.9829 42.3129 43.4567 42.3129 44.059C42.3129 44.6885 42.834 45.1419 43.6597 45.1419C44.2012 45.1419 44.5937 44.966 44.7968 44.6546V45.0946H45.5954V42.9761C45.5954 41.9339 44.993 41.4398 43.9507 41.4398ZM43.8357 44.526C43.4025 44.526 43.1453 44.3298 43.1453 44.0252C43.1453 43.7612 43.301 43.5447 43.8763 43.5447H44.7494V43.9643C44.6073 44.3365 44.2485 44.526 43.8357 44.526Z" fill="white"></path><path d="M92.0492 38.7409C93.3486 38.7409 93.9645 38.0912 93.9645 37.3331C93.9645 35.5937 91.1558 36.2502 91.1558 35.2418C91.1558 34.8831 91.4536 34.5988 92.1845 34.5988C92.5974 34.5988 93.0644 34.7206 93.4908 34.9711L93.7683 34.2875C93.3554 34.0168 92.7598 33.8679 92.1913 33.8679C90.8918 33.8679 90.2827 34.5176 90.2827 35.2824C90.2827 37.0421 93.0982 36.3721 93.0982 37.3941C93.0982 37.746 92.7869 38.01 92.0492 38.01C91.4671 38.01 90.8647 37.7934 90.4857 37.4888L90.1812 38.1724C90.5737 38.5108 91.3114 38.7409 92.0492 38.7409Z" fill="white"></path><path d="M96.1365 35.0184C95.5544 35.0184 94.9927 35.1673 94.6069 35.4651L94.9385 36.081C95.2092 35.8577 95.6289 35.7223 96.0349 35.7223C96.6373 35.7223 96.9351 36.0134 96.9351 36.5074V36.5616H96.0011C94.9047 36.5616 94.4986 37.0353 94.4986 37.6377C94.4986 38.2671 95.0197 38.7206 95.8454 38.7206C96.3869 38.7206 96.7794 38.5446 96.9825 38.2333V38.6732H97.7811V36.5548C97.7811 35.5125 97.1788 35.0184 96.1365 35.0184ZM96.0214 38.1047C95.5882 38.1047 95.3311 37.9084 95.3311 37.6039C95.3311 37.3399 95.4867 37.1233 96.062 37.1233H96.9351V37.543C96.793 37.9152 96.4343 38.1047 96.0214 38.1047Z" fill="white"></path><path d="M100.803 37.8746C100.674 37.9761 100.505 38.0235 100.329 38.0235C100.004 38.0235 99.8279 37.834 99.8279 37.482V35.7629H100.796V35.0861H99.8279V34.2604H98.9819V35.0861H98.3863V35.7629H98.9819V37.5023C98.9819 38.301 99.4354 38.7206 100.227 38.7206C100.532 38.7206 100.836 38.6394 101.039 38.477L100.803 37.8746Z" fill="white"></path><path d="M102.162 34.4635C102.48 34.4635 102.703 34.2333 102.703 33.9355C102.703 33.6581 102.473 33.4482 102.162 33.4482C101.85 33.4482 101.62 33.6716 101.62 33.9559C101.62 34.2401 101.85 34.4635 102.162 34.4635ZM101.735 38.6732H102.581V35.0591H101.735V38.6732Z" fill="white"></path><path d="M104.809 38.7206C105.824 38.7206 106.446 38.2807 106.446 37.6039C106.446 36.1893 104.213 36.8391 104.213 36.1081C104.213 35.8712 104.457 35.702 104.971 35.702C105.316 35.702 105.661 35.7697 106.006 35.9728L106.331 35.3298C106.006 35.1335 105.458 35.0184 104.978 35.0184C104.003 35.0184 103.387 35.4651 103.387 36.1487C103.387 37.5903 105.621 36.9406 105.621 37.6309C105.621 37.8814 105.397 38.0303 104.863 38.0303C104.409 38.0303 103.922 37.8814 103.604 37.6715L103.279 38.3145C103.604 38.5446 104.206 38.7206 104.809 38.7206Z" fill="white"></path><path d="M108.644 34.2875C108.82 34.2875 108.982 34.3484 109.111 34.4364L109.348 33.8002C109.158 33.6648 108.874 33.6039 108.583 33.6039C107.744 33.6039 107.29 34.098 107.29 34.856V35.0861H106.694V35.7629H107.29V38.6732H108.136V35.7629H109.104V35.0861H108.109V34.8695C108.109 34.4838 108.292 34.2875 108.644 34.2875Z" fill="white"></path><path d="M110.988 35.0184C110.406 35.0184 109.844 35.1673 109.458 35.4651L109.79 36.081C110.061 35.8577 110.48 35.7223 110.886 35.7223C111.489 35.7223 111.787 36.0134 111.787 36.5074V36.5616H110.853C109.756 36.5616 109.35 37.0353 109.35 37.6377C109.35 38.2671 109.871 38.7206 110.697 38.7206C111.238 38.7206 111.631 38.5446 111.834 38.2333V38.6732H112.633V36.5548C112.633 35.5125 112.03 35.0184 110.988 35.0184ZM110.873 38.1047C110.44 38.1047 110.183 37.9084 110.183 37.6039C110.183 37.3399 110.338 37.1233 110.914 37.1233H111.787V37.543C111.645 37.9152 111.286 38.1047 110.873 38.1047Z" fill="white"></path><path d="M115.403 37.9964C114.78 37.9964 114.306 37.57 114.306 36.8661C114.306 36.169 114.78 35.7359 115.403 35.7359C115.762 35.7359 116.086 35.8915 116.303 36.2367L116.953 35.8577C116.675 35.3095 116.114 35.0184 115.41 35.0184C114.266 35.0184 113.454 35.7832 113.454 36.8661C113.454 37.8204 114.083 38.5311 115.01 38.6868L114.841 39.3162H115.051C115.308 39.3162 115.41 39.411 115.41 39.5395C115.41 39.6884 115.301 39.7832 115.051 39.7832C114.882 39.7832 114.733 39.7494 114.591 39.6749L114.435 40.0742C114.604 40.169 114.814 40.2164 115.058 40.2164C115.613 40.2164 115.978 39.9659 115.978 39.5734C115.978 39.2824 115.789 39.0522 115.389 39.0049L115.464 38.7206C116.141 38.7071 116.682 38.4025 116.953 37.8746L116.303 37.4956C116.086 37.8408 115.762 37.9964 115.403 37.9964Z" fill="white"></path><path d="M118.706 34.1183C118.95 34.1183 119.18 34.565 119.627 34.565C120.06 34.565 120.344 34.2063 120.358 33.6784H119.904C119.891 33.922 119.762 34.0641 119.572 34.0641C119.329 34.0641 119.099 33.6174 118.652 33.6174C118.219 33.6174 117.935 33.9694 117.921 34.5244H118.374C118.388 34.2672 118.517 34.1183 118.706 34.1183ZM119.065 35.0184C118.483 35.0184 117.921 35.1673 117.535 35.4651L117.867 36.081C118.138 35.8577 118.557 35.7223 118.963 35.7223C119.566 35.7223 119.863 36.0134 119.863 36.5074V36.5616H118.929C117.833 36.5616 117.427 37.0353 117.427 37.6377C117.427 38.2671 117.948 38.7206 118.774 38.7206C119.315 38.7206 119.708 38.5446 119.911 38.2333V38.6732H120.709V36.5548C120.709 35.5125 120.107 35.0184 119.065 35.0184ZM118.95 38.1047C118.517 38.1047 118.259 37.9084 118.259 37.6039C118.259 37.3399 118.415 37.1233 118.99 37.1233H119.863V37.543C119.721 37.9152 119.363 38.1047 118.95 38.1047Z" fill="white"></path><path d="M123.453 38.7206C124.576 38.7206 125.382 37.949 125.382 36.8661C125.382 35.7832 124.576 35.0184 123.453 35.0184C122.343 35.0184 121.53 35.7832 121.53 36.8661C121.53 37.949 122.343 38.7206 123.453 38.7206ZM123.453 37.9964C122.843 37.9964 122.383 37.5565 122.383 36.8661C122.383 36.1758 122.843 35.7359 123.453 35.7359C124.068 35.7359 124.529 36.1758 124.529 36.8661C124.529 37.5565 124.068 37.9964 123.453 37.9964Z" fill="white"></path><path d="M93.8156 44.1467C93.5111 44.3227 93.1794 44.3904 92.841 44.3904C91.8393 44.3904 91.1287 43.6865 91.1287 42.7254C91.1287 41.744 91.8393 41.0605 92.8478 41.0605C93.3554 41.0605 93.7818 41.2297 94.154 41.6019L94.709 41.0605C94.2623 40.5529 93.5991 40.2889 92.8072 40.2889C91.325 40.2889 90.2421 41.3109 90.2421 42.7254C90.2421 44.14 91.325 45.1619 92.7936 45.1619C93.4637 45.1619 94.154 44.9589 94.6481 44.5596V42.6713H93.8156V44.1467Z" fill="white"></path><path d="M97.1081 41.4395C96.526 41.4395 95.9642 41.5884 95.5785 41.8862L95.9101 42.5021C96.1808 42.2787 96.6004 42.1434 97.0065 42.1434C97.6089 42.1434 97.9067 42.4344 97.9067 42.9285V42.9826H96.9727C95.8763 42.9826 95.4702 43.4564 95.4702 44.0587C95.4702 44.6882 95.9913 45.1416 96.817 45.1416C97.3585 45.1416 97.751 44.9657 97.9541 44.6543V45.0943H98.7527V42.9758C98.7527 41.9336 98.1503 41.4395 97.1081 41.4395ZM96.993 44.5257C96.5598 44.5257 96.3027 44.3295 96.3027 44.0249C96.3027 43.7609 96.4583 43.5444 97.0336 43.5444H97.9067V43.964C97.7646 44.3362 97.4059 44.5257 96.993 44.5257Z" fill="white"></path><path d="M100.644 42.008V41.4801H99.8385V45.0943H100.684V43.3413C100.684 42.6036 101.091 42.2246 101.734 42.2246C101.794 42.2246 101.855 42.2314 101.93 42.2449V41.4395C101.327 41.4395 100.888 41.629 100.644 42.008Z" fill="white"></path><path d="M104.008 41.4395C103.426 41.4395 102.865 41.5884 102.479 41.8862L102.81 42.5021C103.081 42.2787 103.501 42.1434 103.907 42.1434C104.509 42.1434 104.807 42.4344 104.807 42.9285V42.9826H103.873C102.777 42.9826 102.37 43.4564 102.37 44.0587C102.37 44.6882 102.892 45.1416 103.717 45.1416C104.259 45.1416 104.651 44.9657 104.854 44.6543V45.0943H105.653V42.9758C105.653 41.9336 105.051 41.4395 104.008 41.4395ZM103.893 44.5257C103.46 44.5257 103.203 44.3295 103.203 44.0249C103.203 43.7609 103.359 43.5444 103.934 43.5444H104.807V43.964C104.665 44.3362 104.306 44.5257 103.893 44.5257Z" fill="white"></path><path d="M108.79 41.4395C108.262 41.4395 107.822 41.6155 107.544 41.9471V41.4801H106.739V45.0943H107.585V43.2669C107.585 42.5427 107.991 42.1772 108.593 42.1772C109.135 42.1772 109.453 42.4885 109.453 43.1315V45.0943H110.299V43.0232C110.299 41.9336 109.656 41.4395 108.79 41.4395Z" fill="white"></path><path d="M113.308 44.2956C113.179 44.3971 113.01 44.4445 112.834 44.4445C112.509 44.4445 112.333 44.255 112.333 43.9031V42.184H113.301V41.5072H112.333V40.6815H111.487V41.5072H110.891V42.184H111.487V43.9234C111.487 44.722 111.941 45.1416 112.732 45.1416C113.037 45.1416 113.342 45.0604 113.545 44.898L113.308 44.2956Z" fill="white"></path><path d="M114.667 40.8845C114.985 40.8845 115.208 40.6544 115.208 40.3566C115.208 40.0791 114.978 39.8693 114.667 39.8693C114.356 39.8693 114.125 40.0926 114.125 40.3769C114.125 40.6611 114.356 40.8845 114.667 40.8845ZM114.241 45.0943H115.087V41.4801H114.241V45.0943Z" fill="white"></path><path d="M118.891 40.0723V41.9268C118.606 41.5951 118.194 41.4395 117.727 41.4395C116.677 41.4395 115.899 42.1637 115.899 43.2872C115.899 44.4107 116.677 45.1416 117.727 45.1416C118.221 45.1416 118.64 44.9724 118.925 44.6273V45.0943H119.737V40.0723H118.891ZM117.828 44.4175C117.219 44.4175 116.752 43.9775 116.752 43.2872C116.752 42.5968 117.219 42.1569 117.828 42.1569C118.437 42.1569 118.904 42.5968 118.904 43.2872C118.904 43.9775 118.437 44.4175 117.828 44.4175Z" fill="white"></path><path d="M122.224 41.4395C121.642 41.4395 121.08 41.5884 120.695 41.8862L121.026 42.5021C121.297 42.2787 121.717 42.1434 122.123 42.1434C122.725 42.1434 123.023 42.4344 123.023 42.9285V42.9826H122.089C120.992 42.9826 120.586 43.4564 120.586 44.0587C120.586 44.6882 121.107 45.1416 121.933 45.1416C122.475 45.1416 122.867 44.9657 123.07 44.6543V45.0943H123.869V42.9758C123.869 41.9336 123.266 41.4395 122.224 41.4395ZM122.109 44.5257C121.676 44.5257 121.419 44.3295 121.419 44.0249C121.419 43.7609 121.574 43.5444 122.15 43.5444H123.023V43.964C122.881 44.3362 122.522 44.5257 122.109 44.5257Z" fill="white"></path><path d="M163.873 33.9355H161.924V38.6732H162.804V37.3061H163.873C165.118 37.3061 165.89 36.6631 165.89 35.6208C165.89 34.5717 165.118 33.9355 163.873 33.9355ZM163.832 36.5616H162.804V34.68H163.832C164.604 34.68 165.003 35.0252 165.003 35.6208C165.003 36.2164 164.604 36.5616 163.832 36.5616Z" fill="white"></path><path d="M167.46 35.587V35.0591H166.654V38.6732H167.5V36.9203C167.5 36.1826 167.906 35.8035 168.549 35.8035C168.61 35.8035 168.671 35.8103 168.746 35.8239V35.0184C168.143 35.0184 167.703 35.208 167.46 35.587Z" fill="white"></path><path d="M169.89 34.4635C170.208 34.4635 170.431 34.2333 170.431 33.9355C170.431 33.6581 170.201 33.4482 169.89 33.4482C169.578 33.4482 169.348 33.6716 169.348 33.9559C169.348 34.2401 169.578 34.4635 169.89 34.4635ZM169.463 38.6732H170.309V35.0591H169.463V38.6732Z" fill="white"></path><path d="M173.992 35.0591L172.834 37.7392L171.711 35.0591H170.831L172.381 38.6732H173.254L174.804 35.0591H173.992Z" fill="white"></path><path d="M176.601 35.0184C176.019 35.0184 175.457 35.1673 175.071 35.4651L175.403 36.081C175.674 35.8577 176.093 35.7223 176.499 35.7223C177.102 35.7223 177.399 36.0134 177.399 36.5074V36.5616H176.465C175.369 36.5616 174.963 37.0353 174.963 37.6377C174.963 38.2671 175.484 38.7206 176.31 38.7206C176.851 38.7206 177.244 38.5446 177.447 38.2333V38.6732H178.245V36.5548C178.245 35.5125 177.643 35.0184 176.601 35.0184ZM176.486 38.1047C176.053 38.1047 175.795 37.9084 175.795 37.6039C175.795 37.3399 175.951 37.1233 176.526 37.1233H177.399V37.543C177.257 37.9152 176.899 38.1047 176.486 38.1047Z" fill="white"></path><path d="M181.022 38.7206C181.726 38.7206 182.288 38.416 182.566 37.8746L181.916 37.4956C181.699 37.8408 181.374 37.9964 181.016 37.9964C180.393 37.9964 179.919 37.57 179.919 36.8661C179.919 36.169 180.393 35.7359 181.016 35.7359C181.374 35.7359 181.699 35.8915 181.916 36.2367L182.566 35.8577C182.288 35.3095 181.726 35.0184 181.022 35.0184C179.879 35.0184 179.066 35.7832 179.066 36.8661C179.066 37.949 179.879 38.7206 181.022 38.7206Z" fill="white"></path><path d="M183.723 34.4635C184.041 34.4635 184.265 34.2333 184.265 33.9355C184.265 33.6581 184.035 33.4482 183.723 33.4482C183.412 33.4482 183.182 33.6716 183.182 33.9559C183.182 34.2401 183.412 34.4635 183.723 34.4635ZM183.297 38.6732H184.143V35.0591H183.297V38.6732Z" fill="white"></path><path d="M187.947 33.6513V35.5058C187.663 35.1741 187.25 35.0184 186.783 35.0184C185.734 35.0184 184.956 35.7426 184.956 36.8661C184.956 37.9896 185.734 38.7206 186.783 38.7206C187.277 38.7206 187.697 38.5514 187.981 38.2062V38.6732H188.793V33.6513H187.947ZM186.884 37.9964C186.275 37.9964 185.808 37.5565 185.808 36.8661C185.808 36.1758 186.275 35.7359 186.884 35.7359C187.494 35.7359 187.961 36.1758 187.961 36.8661C187.961 37.5565 187.494 37.9964 186.884 37.9964Z" fill="white"></path><path d="M191.28 35.0184C190.698 35.0184 190.137 35.1673 189.751 35.4651L190.083 36.081C190.353 35.8577 190.773 35.7223 191.179 35.7223C191.781 35.7223 192.079 36.0134 192.079 36.5074V36.5616H191.145C190.049 36.5616 189.643 37.0353 189.643 37.6377C189.643 38.2671 190.164 38.7206 190.989 38.7206C191.531 38.7206 191.923 38.5446 192.126 38.2333V38.6732H192.925V36.5548C192.925 35.5125 192.323 35.0184 191.28 35.0184ZM191.165 38.1047C190.732 38.1047 190.475 37.9084 190.475 37.6039C190.475 37.3399 190.631 37.1233 191.206 37.1233H192.079V37.543C191.937 37.9152 191.578 38.1047 191.165 38.1047Z" fill="white"></path><path d="M196.738 33.6513V35.5058C196.453 35.1741 196.041 35.0184 195.574 35.0184C194.524 35.0184 193.746 35.7426 193.746 36.8661C193.746 37.9896 194.524 38.7206 195.574 38.7206C196.068 38.7206 196.487 38.5514 196.771 38.2062V38.6732H197.584V33.6513H196.738ZM195.675 37.9964C195.066 37.9964 194.599 37.5565 194.599 36.8661C194.599 36.1758 195.066 35.7359 195.675 35.7359C196.284 35.7359 196.751 36.1758 196.751 36.8661C196.751 37.5565 196.284 37.9964 195.675 37.9964Z" fill="white"></path><path d="M202.088 36.8864C202.088 35.7562 201.316 35.0184 200.261 35.0184C199.184 35.0184 198.393 35.79 198.393 36.8661C198.393 37.9423 199.178 38.7206 200.389 38.7206C201.012 38.7206 201.519 38.5176 201.844 38.1318L201.391 37.6106C201.134 37.8746 200.816 38.0032 200.41 38.0032C199.78 38.0032 199.34 37.6648 199.239 37.1369H202.074C202.081 37.0556 202.088 36.9541 202.088 36.8864ZM200.261 35.6953C200.816 35.6953 201.215 36.054 201.283 36.5751H199.232C199.313 36.0472 199.712 35.6953 200.261 35.6953Z" fill="white"></path><path d="M163.873 40.3566H161.924V45.0943H162.804V43.7271H163.873C165.118 43.7271 165.89 43.0841 165.89 42.0418C165.89 40.9928 165.118 40.3566 163.873 40.3566ZM163.832 42.9826H162.804V41.1011H163.832C164.604 41.1011 165.003 41.4462 165.003 42.0418C165.003 42.6374 164.604 42.9826 163.832 42.9826Z" fill="white"></path><path d="M167.46 42.008V41.4801H166.654V45.0943H167.5V43.3413C167.5 42.6036 167.906 42.2246 168.549 42.2246C168.61 42.2246 168.671 42.2314 168.746 42.2449V41.4395C168.143 41.4395 167.703 41.629 167.46 42.008Z" fill="white"></path><path d="M171.055 45.1416C172.178 45.1416 172.983 44.3701 172.983 43.2872C172.983 42.2043 172.178 41.4395 171.055 41.4395C169.945 41.4395 169.132 42.2043 169.132 43.2872C169.132 44.3701 169.945 45.1416 171.055 45.1416ZM171.055 44.4175C170.445 44.4175 169.985 43.9775 169.985 43.2872C169.985 42.5968 170.445 42.1569 171.055 42.1569C171.67 42.1569 172.131 42.5968 172.131 43.2872C172.131 43.9775 171.67 44.4175 171.055 44.4175Z" fill="white"></path><path d="M175.728 44.2956C175.6 44.3971 175.43 44.4445 175.254 44.4445C174.929 44.4445 174.754 44.255 174.754 43.9031V42.184H175.721V41.5072H174.754V40.6815H173.908V41.5072H173.312V42.184H173.908V43.9234C173.908 44.722 174.361 45.1416 175.153 45.1416C175.457 45.1416 175.762 45.0604 175.965 44.898L175.728 44.2956Z" fill="white"></path><path d="M179.94 43.3075C179.94 42.1772 179.168 41.4395 178.112 41.4395C177.036 41.4395 176.244 42.211 176.244 43.2872C176.244 44.3633 177.029 45.1416 178.241 45.1416C178.863 45.1416 179.371 44.9386 179.696 44.5528L179.242 44.0317C178.985 44.2956 178.667 44.4242 178.261 44.4242C177.632 44.4242 177.192 44.0858 177.09 43.5579H179.926C179.933 43.4767 179.94 43.3752 179.94 43.3075ZM178.112 42.1163C178.667 42.1163 179.067 42.475 179.134 42.9961H177.083C177.165 42.4682 177.564 42.1163 178.112 42.1163Z" fill="white"></path><path d="M183.534 41.4801V41.9606C183.236 41.6019 182.789 41.4395 182.282 41.4395C181.246 41.4395 180.454 42.1298 180.454 43.1789C180.454 44.2279 181.246 44.9318 182.282 44.9318C182.769 44.9318 183.196 44.7762 183.493 44.4513V44.6408C183.493 45.3718 183.141 45.7372 182.343 45.7372C181.842 45.7372 181.328 45.568 181.009 45.3041L180.63 45.9403C181.043 46.2787 181.713 46.4547 182.39 46.4547C183.656 46.4547 184.339 45.8591 184.339 44.546V41.4801H183.534ZM182.41 44.2144C181.767 44.2144 181.307 43.7948 181.307 43.1789C181.307 42.5698 181.767 42.1569 182.41 42.1569C183.047 42.1569 183.507 42.5698 183.507 43.1789C183.507 43.7948 183.047 44.2144 182.41 44.2144Z" fill="white"></path><path d="M185.878 40.8845C186.196 40.8845 186.419 40.6544 186.419 40.3566C186.419 40.0791 186.189 39.8693 185.878 39.8693C185.567 39.8693 185.337 40.0926 185.337 40.3769C185.337 40.6611 185.567 40.8845 185.878 40.8845ZM185.452 45.0943H186.298V41.4801H185.452V45.0943Z" fill="white"></path><path d="M190.102 40.0723V41.9268C189.817 41.5951 189.405 41.4395 188.938 41.4395C187.889 41.4395 187.11 42.1637 187.11 43.2872C187.11 44.4107 187.889 45.1416 188.938 45.1416C189.432 45.1416 189.851 44.9724 190.136 44.6273V45.0943H190.948V40.0723H190.102ZM189.039 44.4175C188.43 44.4175 187.963 43.9775 187.963 43.2872C187.963 42.5968 188.43 42.1569 189.039 42.1569C189.648 42.1569 190.115 42.5968 190.115 43.2872C190.115 43.9775 189.648 44.4175 189.039 44.4175Z" fill="white"></path><path d="M193.435 41.4395C192.853 41.4395 192.291 41.5884 191.906 41.8862L192.237 42.5021C192.508 42.2787 192.928 42.1434 193.334 42.1434C193.936 42.1434 194.234 42.4344 194.234 42.9285V42.9826H193.3C192.203 42.9826 191.797 43.4564 191.797 44.0587C191.797 44.6882 192.318 45.1416 193.144 45.1416C193.686 45.1416 194.078 44.9657 194.281 44.6543V45.0943H195.08V42.9758C195.08 41.9336 194.477 41.4395 193.435 41.4395ZM193.32 44.5257C192.887 44.5257 192.63 44.3295 192.63 44.0249C192.63 43.7609 192.785 43.5444 193.361 43.5444H194.234V43.964C194.092 44.3362 193.733 44.5257 193.32 44.5257Z" fill="white"></path><path d="M8.02263 30.8262L0.760742 33.1393V40.0786C0.760742 43.9114 4.01157 47.0178 8.02263 47.0178C12.0337 47.0178 15.2845 43.9114 15.2845 40.0786V33.1393L8.02263 30.8262ZM13.9229 40.0786C13.9229 43.1922 11.281 45.7167 8.02263 45.7167C4.76424 45.7167 2.12235 43.1922 2.12235 40.0786V34.1151L8.02263 32.1273L13.9229 34.1151V40.0786Z" fill="white"></path><path d="M5.49473 38.2549C5.43163 38.1943 5.35663 38.1463 5.27404 38.1135C5.19144 38.0807 5.10288 38.0638 5.01344 38.0638C4.924 38.0638 4.83544 38.0807 4.75285 38.1135C4.67025 38.1463 4.59525 38.1943 4.53215 38.2549C4.46876 38.3152 4.41846 38.3869 4.38414 38.4658C4.34982 38.5447 4.33215 38.6293 4.33215 38.7148C4.33215 38.8003 4.34982 38.8849 4.38414 38.9638C4.41846 39.0428 4.46876 39.1144 4.53215 39.1747L6.97926 41.5131L7.01897 41.5511C7.07866 41.6082 7.14955 41.6535 7.22759 41.6845C7.30564 41.7154 7.3893 41.7313 7.47378 41.7313C7.55827 41.7313 7.64193 41.7154 7.71998 41.6845C7.79802 41.6535 7.86891 41.6082 7.9286 41.5511L12.1552 37.5122C12.215 37.4552 12.2625 37.3874 12.2949 37.3128C12.3272 37.2383 12.3439 37.1583 12.3439 37.0776C12.3439 36.9968 12.3272 36.9169 12.2949 36.8423C12.2625 36.7677 12.215 36.7 12.1552 36.643L12.1023 36.5924C12.0426 36.5352 11.9717 36.4899 11.8937 36.459C11.8156 36.428 11.732 36.4121 11.6475 36.4121C11.563 36.4121 11.4793 36.428 11.4013 36.459C11.3232 36.4899 11.2524 36.5352 11.1927 36.5924L7.47284 40.1451L5.49473 38.2549Z" fill="white"></path><path fill-rule="evenodd" clip-rule="evenodd" d="M69.8394 37.9457C68.8836 37.8146 68.0094 37.3586 67.377 36.6613C66.7447 35.9641 66.3966 35.0724 66.3966 34.1497V33.6384C66.3966 32.6505 67.2356 31.8488 68.2694 31.8488H69.7206C69.9646 31.2506 70.5724 30.8262 71.2852 30.8262H78.6308C78.969 30.8264 79.2993 30.9241 79.5784 31.1065C79.8576 31.289 80.0726 31.5477 80.1954 31.8488H81.6466C82.6804 31.8488 83.5194 32.6505 83.5194 33.6384V34.1497C83.5194 35.0724 83.1713 35.9641 82.5389 36.6613C81.9066 37.3586 81.0324 37.8146 80.0766 37.9457C79.8507 38.6493 79.4689 39.2981 78.9572 39.8481C78.4455 40.3981 77.8159 40.8364 77.1112 41.1333L77.2653 42.612C77.2706 42.6631 77.2974 42.7347 77.3873 42.8206C77.4793 42.9096 77.6195 42.9945 77.7865 43.0528C78.0893 43.1581 78.4478 43.333 78.7389 43.6336C79.0439 43.9506 79.2387 44.373 79.2387 44.8874V45.6543H80.5764C80.7893 45.6543 80.9934 45.7351 81.1439 45.879C81.2945 46.0228 81.379 46.2179 81.379 46.4213C81.379 46.6247 81.2945 46.8198 81.1439 46.9636C80.9934 47.1075 80.7893 47.1883 80.5764 47.1883H69.3396C69.1267 47.1883 68.9226 47.1075 68.772 46.9636C68.6215 46.8198 68.537 46.6247 68.537 46.4213C68.537 46.2179 68.6215 46.0228 68.772 45.879C68.9226 45.7351 69.1267 45.6543 69.3396 45.6543H70.6773V44.8874C70.6773 44.373 70.8721 43.9506 71.1781 43.6336C71.4671 43.333 71.8267 43.1581 72.1295 43.0528C72.2784 43.0035 72.4145 42.9244 72.5287 42.8206C72.6186 42.7337 72.6453 42.6642 72.6507 42.612L72.8048 41.1333C72.1003 40.8363 71.4709 40.398 70.9594 39.848C70.4479 39.2979 70.0663 38.6492 69.8404 37.9457H69.8394ZM69.6071 33.3828H68.2694C68.1985 33.3828 68.1304 33.4097 68.0802 33.4576C68.0301 33.5056 68.0019 33.5706 68.0019 33.6384V34.1497C68.0019 35.1519 68.6718 36.0038 69.6071 36.3197V33.3828ZM74.3769 41.5331L74.2485 42.7644C74.1489 43.7103 73.3303 44.2676 72.6785 44.4936C72.5584 44.5293 72.4486 44.5908 72.3575 44.6736C72.3179 44.7145 72.2826 44.7687 72.2826 44.8884V45.6554H77.6334V44.8884C77.6334 44.7687 77.5981 44.7145 77.5585 44.6736C77.4674 44.5908 77.3575 44.5292 77.2375 44.4936C76.5857 44.2676 75.767 43.7103 75.6686 42.7654L75.5402 41.5341C75.1535 41.5741 74.7635 41.5741 74.3769 41.5341V41.5331ZM80.3089 36.3208V33.3828H81.6466C81.7175 33.3828 81.7856 33.4097 81.8357 33.4576C81.8859 33.5056 81.9141 33.5706 81.9141 33.6384V34.1497C81.9143 34.6257 81.76 35.0899 81.4725 35.4786C81.185 35.8672 80.7784 36.1611 80.3089 36.3197V36.3208ZM71.2124 32.4297C71.2124 32.3918 71.2445 32.3601 71.2852 32.3601H78.6308C78.6704 32.3601 78.7036 32.3908 78.7036 32.4297V36.4506C78.7036 37.3999 78.309 38.3103 77.6065 38.9815C76.9041 39.6528 75.9514 40.0299 74.958 40.0299C73.9646 40.0299 73.0119 39.6528 72.3094 38.9815C71.607 38.3103 71.2124 37.3999 71.2124 36.4506V32.4297Z" fill="white"></path><path d="M74.9565 33.2803L75.1074 35.536L77.3992 34.9762L75.2007 35.8104L76.4662 37.7202L74.9565 35.98L73.4468 37.7202L74.7122 35.8104L72.5138 34.9762L74.8055 35.536L74.9565 33.2803Z" fill="white"></path><defs><clipPath id="clip0_11_968"><rect width="25.0133" height="14.247" fill="white" transform="translate(14.5664 5.51074)"></rect></clipPath></defs></svg>